PathFileType	4	(X/Y/Z)	C:\Users\Biomechanik\Documents\powerlifting_model\powerlifing_model\simulations\Athlete_03\25_03_31\Walking_01\c3dfile.trc
DataRate	CameraRate	NumFrames	NumMarkers	Units	OrigDataRate	OrigDataStartFrame	OrigNumFrames
200.0	200.0	4	53	mm	200.0	754	239	
Frame#	Time	GLAB			RFHD			LFHD			C7			T6			SPINMOL			SPINM2			SPINM3			T12			BELTOL			BELT2			BELT3			SACROL			SACR2			SACR3			LTHOL			LTH2			LTH3			LSHAOL			LSHA2			LSHA3			LHEE			LTOE			LM5			RTHOL			RTH2			RTH3			RSHAOL			RSHA2			RSHA3			RHEE			RTOE			RM5			STRN			XIPH			LACR			LUAOL			LUA2			LUA3			LLAOL			LLA2			LLA3			LWRR			LWRU			RACR			RUAOL			RUA2			RUA3			RLAOL			RLA2			RLA3			RWRR			RWRU			
		X1	Y1	Z1	X2	Y2	Z2	X3	Y3	Z3	X4	Y4	Z4	X5	Y5	Z5	X6	Y6	Z6	X7	Y7	Z7	X8	Y8	Z8	X9	Y9	Z9	X10	Y10	Z10	X11	Y11	Z11	X12	Y12	Z12	X13	Y13	Z13	X14	Y14	Z14	X15	Y15	Z15	X16	Y16	Z16	X17	Y17	Z17	X18	Y18	Z18	X19	Y19	Z19	X20	Y20	Z20	X21	Y21	Z21	X22	Y22	Z22	X23	Y23	Z23	X24	Y24	Z24	X25	Y25	Z25	X26	Y26	Z26	X27	Y27	Z27	X28	Y28	Z28	X29	Y29	Z29	X30	Y30	Z30	X31	Y31	Z31	X32	Y32	Z32	X33	Y33	Z33	X34	Y34	Z34	X35	Y35	Z35	X36	Y36	Z36	X37	Y37	Z37	X38	Y38	Z38	X39	Y39	Z39	X40	Y40	Z40	X41	Y41	Z41	X42	Y42	Z42	X43	Y43	Z43	X44	Y44	Z44	X45	Y45	Z45	X46	Y46	Z46	X47	Y47	Z47	X48	Y48	Z48	X49	Y49	Z49	X50	Y50	Z50	X51	Y51	Z51	X52	Y52	Z52	X53	Y53	Z53	
754	3.765	265.21323	1607.7114	105.98826	330.42728	1631.8043	155.97865	192.91705	1630.2283	151.3107	258.92355	1444.6069	331.34924	255.06207	1276.1616	391.02817	233.57755	1235.682	399.71375	283.45135	1228.2137	403.29214	249.37451	1171.5746	394.5481	251.39984	1105.26	368.914	239.79507	1068.9257	404.56696	290.11615	1067.136	400.99017	261.879	1006.8918	407.51349	233.58704	956.82397	391.88452	284.84628	954.93793	387.58817	258.43015	895.86261	402.42773	39.713585	675.61987	257.69882	73.879059	609.53979	283.76132	45.756382	616.98212	244.10759	31.019949	419.35956	314.21906	62.236778	412.02414	387.21286	46.891983	375.76996	354.98383	165.44403	304.70364	516.5011	147.06619	100.23594	435.42145	60.849823	130.80586	488.37939	426.21481	685.1322	278.81839	429.0188	636.08905	215.91345	415.27075	626.55908	262.95432	406.86569	335.31409	273.2486	401.9061	264.48221	238.46922	391.75259	276.3631	286.02496	281.01746	63.903645	321.06424	289.10104	45.348785	106.55132	389.88147	37.686203	160.90495	253.41759	1342.6752	161.13092	249.97903	1198.8895	145.23492	82.682327	1408.5927	257.61298	-20.09329	1256.4359	259.27332	-41.613121	1195.1096	269.9718	-19.243662	1200.731	224.93613	-74.537727	996.74164	218.13326	-58.910553	924.02289	244.39581	-76.072807	938.12054	199.72688	-82.08416	842.33203	159.36595	-16.412371	851.0932	116.2583	425.18027	1393.7488	241.77603	524.1048	1242.8115	249.81017	526.61578	1182.2582	222.35751	545.42578	1183.8792	270.44388	568.25732	966.49426	216.47472	585.50037	921.93298	151.81459	568.02283	906.93884	196.72493	573.21558	831.67493	145.78308	497.99634	824.66296	113.68821
755	3.77	265.20117	1608.3652	99.669281	330.40714	1632.5225	149.66301	192.88782	1630.8634	144.97263	259.13812	1445.2932	325.09897	255.54306	1276.8093	384.72269	234.10611	1236.3247	393.4021	283.98721	1228.877	396.92255	249.92831	1172.2225	388.20535	251.90923	1105.9204	362.5712	240.43242	1069.5903	398.45154	290.75336	1067.8146	394.81421	262.52277	1007.5522	401.26462	233.46667	957.67505	385.44138	284.74146	955.48779	381.42114	257.89352	896.59888	396.25278	39.603008	676.66003	247.68054	72.941849	610.24005	273.58099	45.453648	618.20013	233.50938	31.279959	419.04694	301.16327	61.973186	410.79718	374.27103	47.195431	374.96164	341.36734	166.03409	301.0452	503.05521	147.327	99.338387	415.49472	61.162731	128.24951	469.46683	426.32257	686.24353	275.6907	429.41315	636.41876	213.41869	415.3511	627.47522	260.48352	406.65845	335.94595	273.15247	402.15216	264.95551	238.60307	391.48618	277.03281	286.00522	280.86923	64.538651	320.9115	289.18036	45.381744	106.4934	389.93018	37.649094	160.89954	253.40552	1343.4292	154.92133	250.11403	1199.6393	138.9639	82.754684	1409.1968	251.73866	-19.979548	1256.8386	254.29773	-41.313213	1195.5166	265.38358	-19.204481	1200.9998	220.20805	-74.262779	997.00317	214.80527	-58.54615	924.46704	241.59444	-75.849144	938.20526	196.8613	-82.035416	842.09283	157.34428	-16.483492	850.44904	113.94045	425.23346	1394.754	235.2496	524.46558	1244.0535	242.34703	526.95593	1183.6459	214.53813	545.9707	1185.0481	262.56723	568.66162	967.93347	206.54472	585.39905	924.1463	141.2274	568.18524	908.63013	186.05656	572.86414	834.02441	134.13135	497.47006	827.54681	102.37367
756	3.775	265.15381	1608.9867	93.362946	330.35269	1633.2064	143.35664	192.82477	1631.4591	138.65358	259.32864	1445.936	318.84781	255.97816	1277.4194	378.41855	234.58511	1236.9313	387.09039	284.47202	1229.5015	390.56226	250.42934	1172.8334	381.86884	252.36699	1106.5408	356.2417	240.96696	1070.2108	392.35208	291.29037	1068.4434	388.68454	263.05258	1008.1647	395.03986	233.30908	958.47009	379.01602	284.59854	955.99457	375.27844	257.33096	897.28766	390.10272	39.483608	677.70172	237.71147	71.941833	610.95123	263.50253	45.132671	619.42676	223.00682	31.53964	418.52023	288.17899	61.63715	409.27145	361.39822	47.500214	373.90244	327.7652	166.61662	296.98798	489.46863	147.57721	98.315079	395.34836	61.471207	125.49451	450.3093	426.40656	687.32855	272.54718	429.80005	636.74207	210.91266	415.42032	628.38068	257.98792	406.44147	336.59277	273.00058	402.36154	265.44739	238.68466	391.21411	277.7179	285.93826	280.72028	65.20446	320.74973	289.25259	45.40871	106.42931	389.97641	37.615715	160.89133	253.38045	1344.1399	148.71407	250.23767	1200.3417	132.69585	82.80899	1409.765	245.85295	-19.895323	1257.2212	249.33868	-41.031578	1195.9098	260.83414	-19.204523	1201.2417	215.49416	-74.011253	997.23901	211.51437	-58.176373	924.88751	238.8051	-75.638344	938.26923	194.01817	-81.981689	841.85022	155.32248	-16.565643	849.82538	111.61784	425.26172	1395.7137	228.72881	524.80023	1245.2635	234.9075	527.28015	1185.0023	206.75351	546.48846	1186.1921	254.72665	569.0387	969.35669	196.65111	585.29712	926.36743	130.69247	568.31293	910.32147	175.41281	572.4837	836.40045	122.50278	496.93289	830.47852	91.051857
757	3.78	265.07208	1609.5747	87.067314	330.26474	1633.8547	137.058	192.72881	1632.0127	132.35168	259.49475	1446.5345	312.59326	256.36761	1277.9917	372.11505	235.01462	1237.5015	380.77832	284.90579	1230.0872	384.21179	250.87788	1173.4065	375.53897	252.7729	1107.1206	349.92648	241.3976	1070.7878	386.26746	291.72617	1069.0227	382.60098	263.4671	1008.7299	388.84073	233.11977	959.20734	372.60968	284.4231	956.46204	369.15982	256.75507	897.92865	383.974	39.358627	678.73932	227.80363	70.886604	611.66437	253.52672	44.797382	620.65503	212.60825	31.810638	417.7948	275.26987	61.264	407.46011	348.58603	47.813633	372.60858	314.18042	167.18306	292.5452	475.72791	147.81738	97.184288	374.99957	61.770859	122.56103	430.90942	426.46912	688.38184	269.37637	430.17819	637.05798	208.37811	415.48157	629.27087	255.45343	406.22079	337.24963	272.76636	402.52509	265.95389	238.68944	390.94495	278.41397	285.80301	280.57187	65.898834	320.5798	289.31738	45.428539	106.36015	390.01947	37.586658	160.87984	253.34314	1344.8049	142.50726	250.35179	1200.9937	126.43044	82.845337	1410.2932	239.95389	-19.839153	1257.5797	244.39377	-40.766655	1196.2854	256.31949	-19.243942	1201.4553	210.7907	-73.783379	997.4444	208.25581	-57.801189	925.28064	236.02341	-75.441231	938.30743	191.19371	-81.924301	841.59851	153.29677	-16.661634	849.21667	109.28484	425.26596	1396.6243	222.21303	525.10895	1246.4376	227.49075	527.58905	1186.3226	199.00301	546.97937	1187.306	246.92159	569.38922	970.76056	186.79305	585.19287	928.591	120.20871	568.40723	912.00989	164.79489	572.07434	838.79767	110.90081	496.38318	833.45532	79.727554
